<svg width="24" height="24" viewBox="0 0 24 24" fill="none" xmlns="http://www.w3.org/2000/svg">
<path fill-rule="evenodd" clip-rule="evenodd" d="M12 0C18.6274 0 24 5.37257 24 12C24 18.6274 18.6274 24 12 24C5.37257 24 0 18.6274 0 12C0 5.37257 5.37257 0 12 0Z" fill="#FBFBFB"/>
<path fill-rule="evenodd" clip-rule="evenodd" d="M23.3661 8.14286H0.632812C2.23915 3.40761 6.72134 0 11.9995 0C17.2776 0 21.7598 3.40761 23.3661 8.14286Z" fill="#32AB45"/>
<path fill-rule="evenodd" clip-rule="evenodd" d="M23.3661 15.8572C21.7598 20.5924 17.2776 24 11.9995 24C6.72134 24 2.23915 20.5924 0.632812 15.8572H23.3661Z" fill="#1D1D1D"/>
<path fill-rule="evenodd" clip-rule="evenodd" d="M6.42857 1.3689V22.6309C2.60674 20.6238 0 16.6163 0 11.9999C0 7.38348 2.60674 3.37594 6.42857 1.3689Z" fill="#E92B2B"/>
</svg>
