<svg width="24" height="24" viewBox="0 0 24 24" fill="none" xmlns="http://www.w3.org/2000/svg">
<g clip-path="url(#clip0_266_6544)">
<mask id="mask0_266_6544" style="mask-type:luminance" maskUnits="userSpaceOnUse" x="0" y="0" width="24" height="24">
<path d="M12 24C18.6274 24 24 18.6274 24 12C24 5.37258 18.6274 0 12 0C5.37258 0 0 5.37258 0 12C0 18.6274 5.37258 24 12 24Z" fill="white"/>
</mask>
<g mask="url(#mask0_266_6544)">
<path d="M-6 0H30V24H-6V0Z" fill="#006C35"/>
</g>
<mask id="mask1_266_6544" style="mask-type:luminance" maskUnits="userSpaceOnUse" x="0" y="0" width="24" height="24">
<path d="M12 24C18.6274 24 24 18.6274 24 12C24 5.37258 18.6274 0 12 0C5.37258 0 0 5.37258 0 12C0 18.6274 5.37258 24 12 24Z" fill="white"/>
</mask>
<g mask="url(#mask1_266_6544)">
<path fill-rule="evenodd" clip-rule="evenodd" d="M16.6495 17.5761C16.65 17.5759 16.6505 17.5764 16.6509 17.5761C17.0892 17.5977 17.501 17.5803 17.9395 17.6017C18.0089 17.6607 17.9742 17.796 17.929 17.8208C17.9269 17.8217 17.9236 17.8231 17.9215 17.8236C17.9199 17.8241 17.917 17.8236 17.9154 17.8236C17.9138 17.8236 17.9112 17.8241 17.9096 17.8236C17.7668 17.8201 17.6846 17.8168 17.5421 17.8133C17.5418 17.806 17.5409 17.7985 17.539 17.7922C17.5053 17.6921 17.2606 17.6987 17.2029 17.7772C17.2022 17.7784 17.2006 17.7805 17.1999 17.7817C17.1989 17.7833 17.1978 17.7861 17.1971 17.7877C17.1961 17.7896 17.1947 17.7931 17.194 17.7952C17.1931 17.798 17.1928 17.8025 17.1924 17.8058C17.1921 17.8093 17.1908 17.814 17.191 17.8177C16.9985 17.8407 16.8254 17.8114 16.6329 17.8041C16.5764 17.7338 16.583 17.6068 16.6495 17.5761ZM16.4454 16.4917C16.4451 16.4919 16.4442 16.4928 16.444 16.4933C16.1595 16.5662 16.1684 16.8615 16.3509 16.9911C13.3465 16.9911 8.73563 16.9402 7.74702 16.9402C7.19363 16.9402 5.44355 16.8741 5.40983 16.8741C5.78531 17.423 6.32903 17.5348 7.04036 17.5461C8.37488 17.5461 14.5582 17.5297 16.3179 17.5297C16.1927 17.7519 16.3291 18.1093 16.4273 18.1747C16.4294 18.1761 16.4327 18.1782 16.4348 18.1791C16.4385 18.181 16.4433 18.1829 16.4468 18.1836C16.4479 18.1841 16.4503 18.1836 16.4512 18.1836C16.5679 18.2113 16.619 18.1269 16.6584 18.0652C16.8473 18.0819 17.9109 18.0973 18.0084 18.0636C18.0087 18.0636 18.0096 18.0624 18.0098 18.0622C18.0757 18.1592 18.1411 18.2506 18.2662 18.2347C18.4856 18.1876 18.6584 18.1639 18.6637 17.7186C18.6637 17.7186 18.6415 16.9602 18.1434 17.0077C18.0255 17.0256 17.6948 17.0588 17.6948 17.0588C17.3121 17.0131 17.0315 17.0084 16.6012 16.9927C16.6411 16.9423 16.7112 16.7382 16.6254 16.6642C16.6029 16.6457 16.5696 16.6353 16.5234 16.6388C16.523 16.6388 16.5223 16.6388 16.5218 16.6388C16.5211 16.6386 16.5195 16.6388 16.5188 16.6388C16.5185 16.6386 16.5176 16.6374 16.5173 16.6372C16.5162 16.6367 16.5141 16.6365 16.5129 16.6358C16.5105 16.6342 16.5075 16.6309 16.5054 16.6283C16.5049 16.6276 16.5028 16.626 16.5023 16.6253C16.4805 16.5936 16.4688 16.516 16.4543 16.4964C16.4541 16.4961 16.4531 16.4949 16.4529 16.4947C16.4526 16.4947 16.4515 16.4933 16.4512 16.4933C16.4508 16.4928 16.4489 16.4919 16.4484 16.4917C16.4482 16.4917 16.447 16.4917 16.4468 16.4917C16.4466 16.4919 16.4456 16.4917 16.4454 16.4917ZM19.0153 11.2886C18.9797 11.2897 18.9422 11.2946 18.8878 11.2991C18.829 11.3115 18.8086 11.3373 18.7978 11.4086C18.802 11.5166 18.8681 11.5112 18.9359 11.5541C18.975 11.6038 19.0005 11.649 18.9328 11.7311C18.8686 11.7899 18.8229 11.8222 18.7589 11.8811C18.7287 11.9326 18.7097 12.0121 18.8023 12.0369C18.9734 12.0852 19.3692 11.8278 19.3692 11.8224C19.4335 11.7744 19.4121 11.683 19.4067 11.683C19.3695 11.6403 19.2851 11.6659 19.2284 11.659C19.2014 11.659 19.1126 11.646 19.1548 11.5674C19.1899 11.5187 19.2031 11.4896 19.2267 11.4294C19.2534 11.3708 19.23 11.3312 19.1339 11.299C19.0849 11.2902 19.0509 11.2874 19.0153 11.2886ZM12.8637 11.0591C12.8428 11.0579 12.8203 11.0612 12.7976 11.0725C12.7931 11.0725 12.5958 11.2061 12.5323 11.2991C12.4934 11.3286 12.4978 11.3541 12.5097 11.4055C12.54 11.4751 12.5932 11.4533 12.6537 11.4205C12.7338 11.4095 12.7727 11.4622 12.7662 11.5586C12.7291 11.6788 12.7826 11.7236 12.7826 11.7311C12.7826 11.7386 12.8599 11.8049 12.9506 11.7522C13.1421 11.679 13.2614 11.6078 13.5298 11.5494C13.6001 11.5483 13.5961 11.3598 13.4848 11.353C13.3395 11.3603 13.2054 11.3678 13.0601 11.4819C12.9708 11.5028 12.9556 11.4484 12.9356 11.3994C12.9129 11.2785 12.9867 11.1931 12.9717 11.1025C12.9757 11.1064 12.9265 11.0624 12.8637 11.0591ZM3.25597 10.4691C3.24397 10.4694 3.22009 10.505 3.18848 10.5456C2.90648 10.9949 2.8814 11.6654 3.03704 11.8656C3.11977 11.96 3.25597 12.0018 3.35648 11.972C3.53368 11.8954 3.61148 11.5365 3.56956 11.405C3.51052 11.3127 3.4636 11.2979 3.40456 11.3767C3.27988 11.6298 3.22784 11.4566 3.21707 11.315C3.19784 11.0469 3.22384 10.7999 3.25292 10.6042C3.26857 10.5038 3.2679 10.4687 3.25597 10.4691ZM10.7412 10.1436C10.7468 10.1431 10.7517 10.1436 10.7576 10.1436H10.7607C10.9517 10.1954 11.2332 10.2008 11.4776 10.2261C11.6768 10.2388 11.775 10.3946 11.5887 10.46C11.4047 10.5231 11.228 10.5723 11.2271 10.8381C11.2514 10.9698 11.2463 11.0389 11.2257 11.0706C11.224 11.0729 11.2214 11.0762 11.2196 11.0781C11.2193 11.0783 11.2184 11.0792 11.2182 11.0795C11.2179 11.08 11.217 11.0809 11.2167 11.0811C11.2162 11.0814 11.2153 11.0823 11.2151 11.0825L11.2137 11.0841C11.2132 11.0844 11.2111 11.0853 11.2107 11.0856C11.2081 11.0872 11.2045 11.0891 11.2017 11.09C11.1992 11.091 11.1954 11.0912 11.1926 11.0917C11.149 11.098 11.0855 11.0563 11.0381 11.0317C10.9247 10.9501 10.6064 10.753 10.5611 10.3295C10.5546 10.2341 10.6261 10.1516 10.7412 10.1436ZM7.67646 9.72502C7.60218 9.73018 7.53565 9.77002 7.56565 9.87502C7.56114 9.95122 7.77608 10.0438 7.78897 10.22C7.81993 10.2927 7.74308 10.5254 7.80704 10.547C7.86589 10.5714 7.94744 10.3862 7.97817 10.2141C7.99525 10.1197 7.90432 9.78994 7.75009 9.73114C7.72638 9.72598 7.7013 9.72341 7.67646 9.72502ZM17.9154 9.26307C17.8312 9.27341 17.7511 9.35307 17.7879 9.48056C17.7649 9.55532 17.9023 9.81711 17.9379 9.95612C17.97 10.055 17.8966 10.3346 17.9634 10.3641C18.0251 10.3969 18.1868 10.198 18.1809 9.94863C18.1987 9.8204 18.1352 9.34767 17.974 9.26751C17.9555 9.26237 17.9349 9.26072 17.9154 9.26307ZM5.85985 9.07438C5.90624 9.07488 5.95525 9.09785 5.98124 9.16299C6.00472 9.22251 5.98244 9.2851 5.95432 9.31606C5.95405 9.3163 5.95456 9.31721 5.95432 9.31745C5.95381 9.31815 5.9534 9.3198 5.9529 9.3205C5.933 9.34606 5.86316 9.3355 5.81324 9.3355C5.75324 9.33269 5.72348 9.32285 5.68736 9.27384C5.67001 9.21948 5.72276 9.16608 5.74576 9.1255C5.746 9.12502 5.74715 9.1243 5.74736 9.12384C5.74993 9.12012 5.75389 9.11566 5.7579 9.11189C5.77573 9.0955 5.80688 9.08004 5.84041 9.07608C5.84672 9.0751 5.85308 9.07438 5.85985 9.07438ZM4.32373 8.86138C3.84985 8.87002 3.15565 9.48291 3.13734 9.82299C3.6375 9.58275 4.12873 9.35141 4.63734 9.10299C4.55531 8.98042 4.63242 8.87002 4.32373 8.86138ZM12.3354 8.69638C12.3729 8.69261 12.4219 8.70526 12.469 8.73245C12.5372 8.77205 12.5794 8.83157 12.574 8.87496C12.5737 8.87616 12.5742 8.87825 12.574 8.8794C12.5737 8.8806 12.5714 8.88293 12.5709 8.88387C12.5707 8.88507 12.57 8.8874 12.5695 8.8886C12.5693 8.88924 12.5683 8.89068 12.5679 8.8914C12.5676 8.89208 12.5669 8.89376 12.5665 8.8944C12.5641 8.89817 12.5606 8.90189 12.5576 8.90496C12.5247 8.93566 12.4488 8.93124 12.3776 8.88996C12.3098 8.85084 12.2679 8.79058 12.2726 8.74745C12.2726 8.7463 12.2737 8.74414 12.274 8.74299C12.2751 8.73759 12.2773 8.73267 12.2801 8.72799C12.281 8.72638 12.2817 8.72355 12.2829 8.72187C12.2831 8.72163 12.2843 8.72072 12.2845 8.72048C12.2864 8.71812 12.2894 8.71486 12.292 8.71299C12.3028 8.7043 12.3183 8.69823 12.3354 8.69638ZM18.0935 8.60002C18.0886 8.59906 18.083 8.5993 18.0771 8.60141C18.0771 8.60141 17.1621 9.25229 17.1396 9.27502C17.0489 9.35564 17.0941 9.63922 17.1396 9.60641C17.2052 9.63173 18.1261 9.00761 18.1085 8.93448C18.1488 8.93679 18.1681 8.61341 18.0935 8.60002ZM11.4711 8.32841C11.4354 8.33472 11.401 8.36398 11.3885 8.41253C11.3806 8.44414 11.4038 8.49689 11.375 8.51307C11.3585 8.5297 11.2943 8.51986 11.2971 8.43197C11.2971 8.40382 11.2765 8.37315 11.2641 8.35556C11.2514 8.34735 11.2446 8.34502 11.2221 8.34502C11.1945 8.34622 11.1935 8.35349 11.1785 8.37641C11.1722 8.4001 11.1635 8.42333 11.1635 8.45002C11.16 8.48122 11.149 8.49197 11.1261 8.49641C11.1003 8.49641 11.1063 8.49922 11.0855 8.4859C11.0731 8.47251 11.0571 8.46713 11.0571 8.4439C11.0571 8.42002 11.0522 8.38179 11.045 8.3659C11.0342 8.35155 11.0154 8.34548 10.9955 8.34056C10.8877 8.34082 10.8813 8.46339 10.8874 8.51002C10.8795 8.51871 10.8738 8.73994 11.0211 8.8009C11.2184 8.8951 11.689 8.83978 11.5744 8.53556C11.5744 8.50719 11.5669 8.41275 11.5641 8.38697C11.5439 8.3401 11.5066 8.32229 11.4711 8.32841ZM9.82993 8.07058C9.82736 8.07149 9.82477 8.07365 9.82244 8.07504C9.82125 8.07574 9.81916 8.07716 9.818 8.07809C9.79873 8.0924 9.77581 8.12592 9.72493 8.162C9.63916 8.25972 9.62365 8.32769 9.62905 8.52344C9.63373 8.54424 9.79197 8.98395 9.92605 9.29309C10.0162 9.61416 10.0999 9.98216 10.0385 10.3295C9.82713 10.7889 9.40199 11.2007 8.99156 11.4245C8.78252 11.4915 8.60183 11.4686 8.55352 11.4229C8.55308 11.4226 8.55236 11.4219 8.55212 11.4214C8.43188 11.3409 8.42932 11.1972 8.43656 11.1726C8.43656 11.1723 8.43656 11.1712 8.43656 11.1709C8.43683 11.1707 8.43776 11.1697 8.43803 11.1695C8.78442 10.9284 9.1798 10.7331 9.48964 10.082C9.58108 9.83312 9.60892 9.68384 9.51803 9.29895C9.4826 9.15576 9.43876 9.03764 9.34108 8.93595C9.34127 8.93568 9.34223 8.93475 9.34247 8.93451C9.40151 8.9064 9.55434 9.01887 9.57803 8.94809C9.54191 8.76432 9.41747 8.51777 9.27656 8.39144C9.15308 8.2794 9.019 8.26652 8.90605 8.36892C8.77873 8.43972 8.7518 8.694 8.813 8.91641C8.88097 9.08398 9.06469 9.11333 9.19552 9.45058V9.452C9.19832 9.47309 9.24052 9.70373 9.1744 9.797C9.12097 9.96365 8.43424 10.5055 8.38552 10.5381C8.38501 10.5386 8.38148 10.5404 8.38105 10.5409C8.38081 10.5414 8.37961 10.5423 8.3794 10.5425C8.3794 10.5425 8.37824 10.5437 8.378 10.5439C8.37774 10.5442 8.37654 10.5454 8.37654 10.5456C8.3763 10.5456 8.37515 10.5456 8.37493 10.5456C8.37493 10.5456 8.37373 10.5456 8.37349 10.5456C8.3733 10.5453 8.37234 10.5441 8.37188 10.5439C8.37213 10.5439 8.37188 10.5425 8.37188 10.5425C8.37164 10.5421 8.37073 10.54 8.37049 10.5395C8.36838 10.5259 8.3721 10.4914 8.37049 10.4359C8.36603 10.3344 8.40798 10.105 8.40493 10.0656C8.40493 10.0653 8.40493 10.0641 8.40493 10.0639C8.40469 10.0637 8.40373 10.0628 8.40349 10.0625C8.40349 10.0623 8.40349 10.0611 8.40349 10.0609C8.40306 10.0609 8.4021 10.0609 8.40189 10.0609C8.17501 10.2076 8.10001 10.6569 8.05849 10.79C7.48357 11.1873 6.83089 11.4826 6.45493 11.885C6.25924 12.1907 7.80397 11.5339 7.98349 11.4545C7.98515 11.4557 7.98654 11.4576 7.988 11.4589C8.0222 11.4964 8.02501 11.6275 8.12745 11.7456C8.28825 11.9631 8.62948 12.0969 8.96156 12.014C9.51848 11.8126 9.83932 11.4332 10.1661 11.012C10.2127 10.944 10.2858 10.8906 10.3535 10.9431C10.5781 11.4456 11.2252 11.8033 12.0621 11.8401C12.2557 11.6045 12.1632 11.4888 12.0847 11.4395C12.0603 11.4236 11.6684 11.2708 11.6075 11.1187C11.5693 10.9771 11.6623 10.8515 11.8491 10.757C12.3863 10.6921 12.9146 10.6199 13.4255 10.4556C13.4307 10.2839 13.5319 10.0272 13.5997 9.91563C13.6465 9.83828 13.6768 9.83055 13.688 9.81953C13.6885 9.81927 13.6892 9.81838 13.6897 9.81812C13.6897 9.81788 13.6911 9.81668 13.6911 9.81646C13.6913 9.81627 13.6923 9.81531 13.6925 9.81507C13.6927 9.81459 13.6927 9.8125 13.6925 9.81202C13.693 9.80876 13.6925 9.80288 13.6911 9.79702L13.6041 9.74619L11.8897 9.7387C11.8683 9.73047 11.8526 9.72226 11.8431 9.71453C11.8423 9.71403 11.8407 9.71218 11.84 9.71146C11.8397 9.71127 11.8388 9.71031 11.8385 9.71007C11.8383 9.70983 11.8374 9.70887 11.8371 9.70868C11.8369 9.70796 11.8358 9.70611 11.8355 9.7056C11.8355 9.70536 11.8343 9.70416 11.8341 9.70395C11.8341 9.70395 11.8341 9.7028 11.8341 9.70256C11.8338 9.70232 11.8327 9.70116 11.8327 9.70116C11.8327 9.70092 11.8324 9.69972 11.8327 9.69951C11.8327 9.69951 11.8324 9.69836 11.8327 9.69809C11.8327 9.69785 11.8324 9.69665 11.8327 9.69644C11.8324 9.69624 11.8327 9.69528 11.8327 9.69504C11.8327 9.69504 11.8327 9.69384 11.8327 9.69365C11.8324 9.69341 11.8327 9.69221 11.8327 9.692C11.8324 9.692 11.8327 9.69084 11.8327 9.69058C11.8324 9.69034 11.8327 9.68914 11.8327 9.68914C11.8329 9.68871 11.8338 9.68775 11.8341 9.68753C11.8346 9.68681 11.835 9.68542 11.8355 9.68448C11.8439 9.67323 11.8643 9.66269 11.8897 9.65307C12.2989 9.59729 13.0264 9.47799 13.0747 8.77863C13.0672 8.41412 12.9188 8.17556 12.4716 8.10946C12.143 8.135 11.9089 8.45259 11.9466 8.80251C11.9309 8.89671 11.9785 9.08163 11.8821 9.10251C11.2519 9.16016 10.5643 9.55486 10.5411 9.83751C10.5408 9.83751 10.5396 9.83751 10.5396 9.83751C10.5394 9.83775 10.5382 9.83871 10.538 9.8389C10.5375 9.83914 10.5359 9.8401 10.535 9.84056C10.5345 9.84056 10.5326 9.84056 10.5321 9.84056C10.531 9.84082 10.5286 9.84171 10.5277 9.84197C10.5272 9.84197 10.5265 9.84197 10.5261 9.84197C10.5251 9.84197 10.5237 9.84197 10.523 9.84197C10.5228 9.84197 10.5221 9.84197 10.5216 9.84197C10.5209 9.84197 10.519 9.84197 10.5185 9.84197C10.5169 9.84171 10.5141 9.84082 10.5127 9.84056C10.4717 9.82906 10.4187 9.76155 10.4271 9.66639C10.403 9.17796 10.2441 8.62532 9.9952 8.19946C9.90611 8.11064 9.86747 8.07478 9.84215 8.07056C9.84119 8.07032 9.8398 8.07056 9.83908 8.07056C9.83792 8.07056 9.83608 8.07056 9.83464 8.07056C9.8344 8.07056 9.83324 8.07056 9.83303 8.07056C9.83303 8.07056 9.83183 8.07056 9.83156 8.07056C9.83132 8.07056 9.83017 8.07056 9.83017 8.07056L9.82993 8.07058ZM17.5877 7.4239C17.4907 7.41922 17.3876 7.48205 17.3613 7.61446C17.3616 7.69251 17.3965 7.73564 17.3897 7.80639C17.3796 7.84695 17.3379 7.87371 17.2383 7.82588C17.2538 7.81152 17.1738 7.69839 17.1738 7.69839C17.096 7.65104 16.9922 7.70096 16.9247 7.745C16.8876 7.81248 16.86 7.92831 16.9022 8.04639C17.0137 8.25243 17.3962 8.6042 17.5788 8.60751C17.5821 8.42163 17.6001 8.17462 17.6102 8.0209C17.6144 7.96299 17.628 7.89898 17.6838 7.88446C17.7393 7.86994 17.8357 7.94024 17.8366 7.88C17.8265 7.7616 17.8029 7.58727 17.7363 7.505C17.7021 7.45438 17.6459 7.42671 17.5877 7.4239ZM8.21581 7.38058C8.19138 7.37801 8.15953 7.38689 8.12274 7.40892C7.94816 7.50344 7.88065 7.78349 7.98916 7.94753C8.09089 8.09189 8.2514 8.03892 8.27274 8.03892C8.44381 8.06028 8.54581 7.71809 8.54581 7.71809C8.54581 7.71809 8.55097 7.62173 8.34774 7.80344C8.2622 7.81959 8.25073 7.78868 8.22916 7.7406C8.21132 7.65152 8.21533 7.56111 8.25632 7.47202C8.27509 7.41857 8.2563 7.38456 8.21581 7.38058ZM14.8455 7.31448C14.8099 7.32058 14.7755 7.35149 14.763 7.40002C14.7551 7.43163 14.7783 7.48299 14.7495 7.4989C14.733 7.51556 14.6688 7.50598 14.6714 7.41807C14.6714 7.38994 14.651 7.35922 14.6386 7.34141C14.6259 7.33323 14.6175 7.3309 14.595 7.3309C14.5676 7.33205 14.5681 7.3393 14.5531 7.36251C14.5467 7.38598 14.5381 7.40912 14.5381 7.4359C14.5346 7.46729 14.5235 7.47783 14.5006 7.48251C14.4748 7.48251 14.4795 7.48532 14.4586 7.47197C14.4462 7.45841 14.4314 7.45299 14.4314 7.43002C14.4314 7.40614 14.4253 7.36767 14.4181 7.35197C14.407 7.33745 14.3897 7.33155 14.37 7.32641C14.2622 7.32689 14.2559 7.44922 14.262 7.4959C14.254 7.50478 14.2484 7.72582 14.3955 7.78697C14.5929 7.88122 14.9646 7.8397 14.9489 7.52141C14.9489 7.49333 14.9412 7.39884 14.9386 7.37285C14.9184 7.32598 14.8812 7.30841 14.8455 7.31448ZM13.3936 6.60058C13.402 6.63807 13.4105 6.67608 13.4161 6.71448C13.4349 6.79769 13.4513 6.88018 13.4686 6.96197C13.3957 6.86163 13.3355 6.78082 13.3095 6.75197C13.1447 6.5563 13.3132 6.62333 13.3936 6.60058ZM19.6964 6.44448C19.6041 6.44122 19.5035 6.5113 19.5434 6.64841C19.5201 6.72341 19.7402 6.97745 19.7759 7.11641C19.808 7.21534 19.7271 7.53406 19.7939 7.56341C19.8553 7.59641 19.9418 7.34333 19.9739 7.1089C19.9917 6.98072 19.8966 6.53048 19.7353 6.45034C19.7231 6.44705 19.7095 6.44494 19.6964 6.44448ZM8.29638 6.1489C8.34234 6.14422 8.39814 6.18663 8.42531 6.24639C8.45437 6.3104 8.43983 6.37136 8.39226 6.38304C8.34491 6.39454 8.28349 6.35235 8.25445 6.28839C8.22539 6.22462 8.23993 6.16203 8.28726 6.15056C8.29031 6.14962 8.29338 6.14914 8.29638 6.1489ZM14.4417 5.93307C14.3407 5.93002 14.2287 5.99379 14.2723 6.12056C14.2469 6.18946 14.4897 6.42406 14.5289 6.55251C14.5992 6.74962 14.475 6.93783 14.5484 6.96502C14.6158 6.9955 14.7096 6.76138 14.7448 6.54502C14.7855 6.36994 14.6606 6.01155 14.4839 5.93753C14.4703 5.93422 14.4563 5.93333 14.4417 5.93307ZM6.55357 5.92841C6.52501 5.93213 6.49338 5.94833 6.45608 5.95697C6.33352 5.9959 6.21889 6.10179 6.25501 6.30807C6.39985 7.18791 6.49432 7.85938 6.63889 8.73948C6.66116 8.84261 6.57493 8.97833 6.46357 8.96448C6.27421 8.8363 6.2271 8.57681 5.90389 8.58785C5.67001 8.59066 5.40332 8.84542 5.37001 9.09058C5.33108 9.28534 5.31704 9.49649 5.37001 9.66641C5.53432 9.86422 5.7314 9.84315 5.90389 9.79841C6.04597 9.74002 6.1629 9.6001 6.21308 9.63341C6.21308 9.63365 6.21448 9.63341 6.21448 9.63341C6.21472 9.63365 6.21448 9.6348 6.21448 9.63502C6.24541 9.68914 6.21167 10.1469 5.5456 10.5003C5.13611 10.6843 4.81033 10.7281 4.63504 10.3939C4.52627 10.1851 4.64303 9.38962 4.3756 9.57339C3.5848 11.6117 6.22832 11.8965 6.5234 9.65751C6.5426 9.5942 6.60097 9.53098 6.64196 9.54639C6.66001 9.55412 6.67664 9.57855 6.6825 9.62446C6.62106 11.6518 4.63734 11.7906 4.30057 11.1528C4.21688 11.0026 4.1918 10.6679 4.18357 10.4675C4.16814 10.3461 4.13766 10.2763 4.1025 10.2484C4.0221 10.1881 3.91403 10.3456 3.89106 10.6189C3.85756 10.839 3.86694 10.8992 3.86694 11.1109C3.97288 12.7121 6.52571 12.0242 6.94055 10.7014C7.14587 10.0178 6.93628 9.50189 7.00499 9.43841C7.00549 9.43791 7.00734 9.43745 7.00806 9.43697C7.00849 9.43647 7.01039 9.43582 7.01087 9.43556C7.01178 9.43508 7.01322 9.43412 7.01387 9.4339C7.01622 9.43347 7.02023 9.43251 7.02306 9.43251C7.27638 9.70556 7.63194 9.46719 7.70999 9.37251C7.7433 9.32516 7.82694 9.2947 7.88555 9.3559C8.08312 9.49815 8.42951 9.43114 8.50194 9.18056C8.54363 8.9354 8.57903 8.6832 8.58748 8.42139C8.45855 8.46147 8.35475 8.49147 8.31304 8.53556C8.30296 8.54636 8.29568 8.55855 8.29336 8.57139C8.28232 8.64382 8.27152 8.71647 8.26055 8.78888C8.25911 8.795 8.25724 8.80061 8.25443 8.80553C8.249 8.81444 8.23991 8.82264 8.23055 8.82804C8.18483 8.85288 8.10563 8.8386 8.10136 8.77251C8.04021 8.49404 7.78804 8.45775 7.63496 8.88946C7.53184 8.97291 7.34384 8.98928 7.32443 8.8639C7.34951 8.57446 7.2328 8.53556 6.99887 8.67197C6.92363 8.09847 6.84913 7.55072 6.77387 6.97697C6.87136 6.97414 6.96095 7.04494 7.04999 6.93363C6.95346 6.63363 6.74951 6.02331 6.63445 5.96614C6.63349 5.96564 6.63234 5.96494 6.63138 5.96448C6.62622 5.95841 6.62015 5.95253 6.61499 5.94807C6.61288 5.94622 6.60959 5.94363 6.6075 5.94197C6.60539 5.94056 6.6021 5.93871 6.60001 5.93751C6.59533 5.93494 6.58948 5.93304 6.58501 5.93163C6.57448 5.92863 6.5644 5.92719 6.5534 5.92863L6.55357 5.92841ZM4.53001 5.92558C4.47424 5.93189 4.42172 5.97737 4.3964 6.03809C4.38728 6.25208 4.38589 6.46608 4.41001 6.66344C4.5075 7.00959 4.53824 7.314 4.58557 7.66844C4.59865 8.14325 4.3113 7.87392 4.32445 7.63844C4.39081 7.3328 4.37298 6.8516 4.31389 6.72951C4.26728 6.60764 4.21316 6.5774 4.09945 6.59756C4.00921 6.59192 3.77622 6.84603 3.71106 7.26644C3.71106 7.26644 3.6567 7.48232 3.63306 7.67451C3.60114 7.89176 3.45726 8.04552 3.35694 7.64451C3.27023 7.35317 3.21702 6.63504 3.07194 6.80309C3.03047 7.36373 2.98103 8.3502 3.45748 8.45144C4.03379 8.507 3.71528 7.4774 3.92387 7.2906C3.96347 7.19825 4.03638 7.1966 4.04248 7.31312V8.18758C4.03732 8.47186 4.22435 8.55627 4.36943 8.61507C4.52063 8.60338 4.62071 8.60758 4.67996 8.75453C4.7036 9.2587 4.72828 9.76397 4.75192 10.2681C4.75192 10.2681 5.10136 10.3685 5.11804 9.41758C5.13464 8.85927 5.00668 8.39055 5.08192 8.28204C5.08472 8.17541 5.22136 8.17001 5.31604 8.22204C5.46652 8.32822 5.53336 8.45897 5.76748 8.40648C6.12371 8.30856 6.3382 8.13557 6.34355 7.86204C6.32272 7.60212 6.29272 7.34194 6.17999 7.08204C6.19571 7.03469 6.11178 6.91186 6.12748 6.86456C6.19144 6.96488 6.28828 6.95645 6.31055 6.86456C6.24983 6.66488 6.15536 6.4734 6.00306 6.39065C5.87694 6.27956 5.6925 6.303 5.62499 6.53456C5.59355 6.80129 5.72178 7.11768 5.91606 7.376C5.95734 7.47696 6.01499 7.64504 5.98945 7.796C5.88606 7.85504 5.78365 7.83044 5.69694 7.739C5.69694 7.739 5.41355 7.52688 5.41355 7.47956C5.48879 6.99792 5.42975 6.9426 5.38806 6.809C5.35895 6.62456 5.2713 6.566 5.20057 6.44012C5.12953 6.36488 5.03346 6.36488 4.9875 6.44012C4.8621 6.65739 4.92097 7.12359 5.01138 7.33263C5.07702 7.52458 5.1771 7.64458 5.12999 7.64458C5.09106 7.75308 5.00999 7.72779 4.95138 7.60263C4.86798 7.34367 4.85106 6.95763 4.85106 6.78351C4.82603 6.56787 4.79788 6.10707 4.65606 5.99012C4.61816 5.93849 4.57338 5.92042 4.53001 5.92558ZM15.2566 5.88456C15.2367 5.88665 15.2126 5.91713 15.1755 5.99566C15.0865 6.14141 15.026 6.3955 15.033 6.63315C15.2259 7.96815 15.285 9.13649 15.4111 10.4717C15.4214 10.6009 15.4024 10.7884 15.3166 10.8631C14.9991 11.1946 14.5413 11.6036 14.043 11.7917C13.9894 11.852 14.1764 12.1084 14.418 12.1081C14.8223 12.0613 15.1776 11.8344 15.5072 11.2367C15.5953 11.0973 15.75 10.7989 15.7547 10.5676C15.7854 9.21171 15.6862 8.15751 15.483 7.17759C15.4701 7.08219 15.4788 6.9692 15.495 6.94064C15.5212 6.90946 15.6101 6.94136 15.6572 6.8642C15.7261 6.79368 15.4725 6.20871 15.3286 5.98368C15.2998 5.92721 15.2822 5.88221 15.2566 5.88456ZM8.3325 5.88171C8.26429 5.88524 8.20403 5.9047 8.1525 5.9312C8.02172 6.05655 7.99103 6.25743 8.09413 6.38259C8.19445 6.42994 8.29453 6.53098 8.2275 6.58671C7.94389 6.88954 7.20589 7.39582 7.16857 7.48815C7.16838 7.48882 7.16718 7.4905 7.16718 7.49122C7.16694 7.49187 7.16718 7.49357 7.16718 7.49422C7.16718 7.49448 7.16694 7.49542 7.16718 7.49566C7.16742 7.49638 7.16814 7.49801 7.16857 7.49873C7.16881 7.49892 7.16977 7.49988 7.17001 7.50012C7.17025 7.50036 7.1714 7.50012 7.17164 7.50012C7.17189 7.50036 7.17282 7.50152 7.17308 7.50173C7.17352 7.50173 7.17424 7.50149 7.17469 7.50173C7.17469 7.50173 7.17589 7.50317 7.17608 7.50317C7.21357 7.52825 7.67557 7.52777 7.72664 7.50459C7.72688 7.50459 7.72782 7.50344 7.72808 7.50317H7.72969C7.72969 7.50317 7.72945 7.50173 7.72969 7.50173C7.88838 7.44317 8.64164 6.58208 8.64164 6.58208C8.6025 6.54881 8.56664 6.52416 8.5275 6.49066C8.48581 6.45456 8.49001 6.41892 8.5275 6.38261C8.71403 6.27408 8.65499 6.03526 8.5575 5.92673C8.47688 5.89042 8.40073 5.87823 8.3325 5.88171ZM5.68357 5.87871C5.648 5.88478 5.61349 5.91428 5.60106 5.96259C5.59314 5.99446 5.61467 6.04719 5.58606 6.06312C5.56945 6.07976 5.50686 6.06855 5.50945 5.98061C5.50945 5.95272 5.48903 5.92344 5.47664 5.90561C5.46397 5.8974 5.45557 5.89508 5.43308 5.89508C5.40565 5.89628 5.40608 5.90355 5.39108 5.92668C5.38432 5.95016 5.37565 5.97312 5.37565 6.00008C5.37234 6.03147 5.35969 6.04203 5.33672 6.04647C5.31097 6.04647 5.31704 6.04928 5.29616 6.0362C5.28373 6.02259 5.26924 6.01719 5.26924 5.99396C5.26924 5.97008 5.2629 5.93184 5.25568 5.9162C5.24488 5.90163 5.22752 5.89412 5.2076 5.88896C5.0998 5.88946 5.09207 6.01347 5.09816 6.06008C5.09017 6.06896 5.08616 6.2886 5.23316 6.34954C5.43073 6.44379 5.80081 6.4039 5.78509 6.08564C5.78509 6.05751 5.77897 5.96283 5.77616 5.93705C5.75605 5.89018 5.71873 5.87237 5.68316 5.87871H5.68357ZM16.005 5.8501C15.9884 5.85315 15.9638 5.87849 15.9181 5.93871C15.8051 6.30783 15.7655 6.60946 15.8086 6.83871C16.0985 8.35227 16.3957 9.73136 16.3486 11.1721C16.4859 11.173 16.6451 10.8575 16.7131 10.5451C16.7501 10.115 16.6882 9.85299 16.677 9.6001C16.6659 9.34721 16.3908 7.2955 16.335 7.10422C16.2677 6.74237 16.6024 7.05665 16.5661 6.84622C16.4503 6.5809 16.1613 6.19464 16.0711 5.96422C16.0371 5.90237 16.0329 5.84542 16.005 5.8501ZM20.2439 5.82759C20.2242 5.8297 20.2001 5.86155 20.1631 5.9401C20.074 6.0859 20.0433 6.34697 20.0789 6.57759C20.2934 8.02743 20.4525 9.43112 20.4855 10.7162C20.467 10.838 20.4616 10.903 20.4045 11.0567C20.2779 11.2189 20.1384 11.4221 20.007 11.5201C19.8755 11.6181 19.5959 11.7116 19.5045 11.7842C19.2143 11.9518 19.2129 12.1447 19.4475 12.1517C19.8516 12.1046 20.3299 12.0716 20.6595 11.5742C20.7476 11.4348 20.8514 11.057 20.8559 10.8257C20.8868 9.4698 20.8385 8.14416 20.6355 7.16422C20.6224 7.06865 20.5802 6.84922 20.5964 6.82066C20.6227 6.75365 20.7549 6.82745 20.8019 6.75012C20.8711 6.67959 20.46 6.15317 20.3158 5.92817C20.2873 5.87163 20.2695 5.82526 20.2439 5.82759ZM3.59228 5.82572C3.50533 5.82315 3.40924 5.87727 3.44675 5.98179C3.42496 6.03879 3.61715 6.23139 3.65092 6.33713C3.68111 6.41261 3.62092 6.65542 3.68368 6.67767C3.74183 6.70275 3.82148 6.50962 3.85175 6.33128C3.8686 6.23355 3.856 5.8988 3.6284 5.83016C3.61664 5.82759 3.60469 5.82598 3.59228 5.82572ZM18.2098 5.81072C18.1854 5.80697 18.1587 5.8189 18.1287 5.86323C18.0715 5.91341 18.0099 6.0043 18.0117 6.1213C18.0255 6.32705 18.0623 6.53799 18.0762 6.74381C18.0811 6.77124 18.0863 6.79865 18.0912 6.82632C18.0692 6.79817 18.0497 6.77616 18.0387 6.76488C17.6374 6.34325 18.2231 6.696 17.9623 6.3702C17.7415 6.12809 17.677 6.051 17.4881 5.9052C17.3934 5.844 17.3362 5.72708 17.3053 5.92632C17.2929 6.10116 17.28 6.30384 17.2917 6.45132C17.291 6.53336 17.3759 6.68756 17.4492 6.77825C17.7169 7.10708 17.9904 7.45724 18.2653 7.8224C18.323 8.567 18.3384 9.24975 18.3973 9.99576C18.3888 10.315 18.2908 10.7388 18.1978 10.7788C18.1978 10.7788 18.0555 10.8604 17.9606 10.7697C17.8917 10.742 17.6156 10.3093 17.6156 10.3093C17.4745 10.1797 17.3803 10.2168 17.2797 10.3093C17.0025 10.577 16.8771 11.0784 16.6887 11.4238C16.6401 11.5009 16.5033 11.5665 16.3512 11.4177C15.9649 10.8899 16.1908 10.1388 16.1428 10.3318C15.7987 10.7195 15.9511 11.3622 16.0287 11.5002C16.1421 11.7273 16.234 11.8727 16.4547 11.9849C16.6558 12.1328 16.8124 12.0404 16.8987 11.9368C17.1012 11.7271 17.1037 11.1909 17.1987 11.0849C17.2654 10.8899 17.4323 10.9234 17.5137 11.0099C17.5926 11.1234 17.6857 11.1972 17.8017 11.2588C17.9904 11.4252 18.2156 11.4554 18.4378 11.3038C18.5894 11.2188 18.6879 11.1081 18.7767 10.8899C18.8721 10.6349 18.825 9.29895 18.8037 8.55576C18.9462 8.7566 19.087 8.96168 19.2267 9.16932C19.2881 9.8216 19.316 10.464 19.2956 11.0802C19.2813 11.2028 19.7231 10.7146 19.7203 10.4833C19.7182 10.281 19.7205 10.0975 19.7203 9.92681C19.9345 10.269 20.1422 10.6171 20.3381 10.9693C20.4597 10.9049 20.418 10.2168 20.3411 10.1218C20.1358 9.7771 19.8729 9.40491 19.6692 9.11684C19.6289 8.75312 19.574 8.32419 19.5492 8.19272C19.5103 7.98788 19.4714 7.67991 19.4128 7.43684C19.3966 7.34168 19.3479 7.03844 19.3631 7.00935C19.3872 6.94143 19.4777 7.01146 19.5222 6.93274C19.589 6.86009 19.2909 6.08806 19.1397 5.86774C19.0853 5.76905 18.9869 5.80328 18.8653 5.96386C18.7523 6.06929 18.7935 6.31047 18.8367 6.53969C18.9487 7.12397 19.0485 7.71927 19.1278 8.31274C18.9813 8.09525 18.8027 7.83178 18.6267 7.57774C18.622 7.55338 18.6042 7.46362 18.6042 7.4622C18.6042 7.45186 18.58 6.98429 18.5592 6.87274C18.5554 6.8275 18.5446 6.81461 18.5922 6.82023C18.6424 6.86266 18.6492 6.86475 18.6806 6.87884C18.7314 6.8882 18.7757 6.80218 18.7453 6.72272C18.5882 6.43325 18.4312 6.1424 18.2742 5.85272C18.2553 5.83414 18.2342 5.81448 18.2098 5.81072ZM12.5456 5.75213C12.4955 5.75679 12.4556 5.78614 12.4406 5.86018C12.4207 6.03456 12.431 6.12922 12.4603 6.2743C12.4826 6.3709 12.6234 6.53283 12.6928 6.62681C13.0238 7.07165 13.3423 7.51865 13.6498 7.98132C13.6981 8.32467 13.7334 8.66076 13.7562 8.9952C13.8061 9.72881 13.8213 10.6422 13.7759 11.4147C13.9132 11.4203 14.1335 11.1927 14.2109 10.8599C14.261 10.3991 14.1928 9.45927 14.1884 9.1874C14.1851 9.0744 14.178 8.93967 14.1703 8.79884C14.528 9.38336 14.8751 10.0028 15.2156 10.6827C15.3399 10.6237 15.3124 9.92451 15.2398 9.82632C14.967 9.2394 14.5903 8.66004 14.4703 8.43716C14.4269 8.35673 14.2793 8.13224 14.1042 7.87325C14.0721 7.50368 14.0369 7.19074 14.0142 7.09632C13.958 6.7056 14.1747 7.14036 14.1447 6.91325C14.0744 6.52301 13.8591 6.25793 13.6047 5.90074C13.5227 5.78448 13.5243 5.76084 13.3978 5.92908C13.3221 6.10092 13.323 6.24365 13.3453 6.37769C13.312 6.32938 13.2708 6.272 13.2117 6.20074C12.9921 6.01229 12.9785 6.002 12.7962 5.84823C12.7387 5.80745 12.6293 5.74464 12.5458 5.75213H12.5456ZM10.6348 5.71767C10.5861 5.72187 10.5319 5.77882 10.4878 5.88879C10.4499 5.97221 10.4037 6.4093 10.4112 6.4093C10.381 6.53938 10.5471 6.59448 10.6228 6.42737C10.7361 6.12084 10.7367 5.99026 10.7442 5.86018C10.7266 5.7613 10.6835 5.71349 10.6348 5.71767ZM11.1523 5.67737C11.1209 5.68157 11.0824 5.72187 11.0292 5.81849C10.9911 5.91948 10.8262 6.07277 10.9451 6.38849C11.0424 6.58865 11.0822 6.91392 11.0382 7.27649C10.9709 7.37938 10.9554 7.41502 10.8673 7.51793C10.7431 7.65132 10.6088 7.61732 10.5057 7.5674C10.4093 7.50248 10.3336 7.46916 10.2898 7.26293C10.2978 6.93408 10.3167 6.39624 10.2567 6.28181C10.1682 6.10512 10.0221 6.16841 9.9598 6.22181C9.6598 6.49608 9.51167 6.95892 9.42119 7.32737C9.33803 7.59574 9.24942 7.51815 9.18731 7.40988C9.0357 7.26785 9.02512 6.15785 8.84231 6.34042C8.54934 7.17761 9.01036 8.09448 9.3298 8.00542C9.5602 8.10084 9.7064 7.66229 9.80068 7.18181C9.86533 7.04708 9.91456 7.03157 9.94761 7.101C9.93916 7.73964 9.99352 7.88216 10.1576 8.076C10.5239 8.35844 10.827 8.11181 10.8507 8.08793L11.1357 7.80293C11.1992 7.73616 11.2831 7.73216 11.3726 7.791C11.4598 7.8702 11.4485 8.00657 11.6351 8.10152C11.7921 8.16432 12.1275 8.11676 12.2051 7.98152C12.3099 7.80202 12.3352 7.74036 12.3837 7.6724C12.4585 7.57301 12.5862 7.61708 12.5862 7.64852C12.5743 7.70384 12.4993 7.75868 12.5501 7.85852C12.6389 7.92504 12.6598 7.88216 12.7123 7.8674C12.8982 7.7786 13.0376 7.37544 13.0376 7.37544C13.0461 7.22496 12.9605 7.23644 12.9057 7.2674C12.8344 7.311 12.83 7.32576 12.7587 7.36932C12.6678 7.38293 12.4918 7.44293 12.4048 7.30793C12.3158 7.14574 12.3153 6.91956 12.2473 6.756C12.2473 6.744 12.1283 6.49865 12.2382 6.48293C12.2937 6.49325 12.413 6.52392 12.4318 6.42432C12.4899 6.32732 12.3062 6.05189 12.1812 5.91293C12.0727 5.79384 11.9229 5.77932 11.7777 5.901C11.6762 5.99451 11.6912 6.09881 11.6712 6.19793C11.6455 6.31157 11.6504 6.45245 11.7657 6.60293C11.8672 6.80309 12.0516 7.05972 11.9907 7.42181C11.9907 7.42181 11.8836 7.59432 11.6952 7.57181C11.6166 7.55472 11.4889 7.52074 11.4207 7.01849C11.3694 6.63807 11.4336 6.10534 11.2723 5.85598C11.2357 5.76171 11.2045 5.67034 11.1523 5.67737ZM9.51726 5.66849C9.49849 5.66777 9.47087 5.67833 9.43172 5.70149C9.34381 5.76034 9.16993 5.94149 9.16477 6.14988C9.15937 6.26753 9.13713 6.26708 9.21424 6.34181C9.26977 6.42224 9.32533 6.41424 9.43782 6.35542C9.50229 6.30785 9.52405 6.27761 9.54565 6.19793C9.57234 6.06432 9.40501 6.26124 9.38365 6.1124C9.34638 5.97432 9.45308 5.91764 9.55477 5.784C9.55712 5.72098 9.55808 5.66962 9.51726 5.66849Z" fill="white"/>
</g>
</g>
<defs>
<clipPath id="clip0_266_6544">
<rect width="24" height="24" fill="white"/>
</clipPath>
</defs>
</svg>
