<svg width="24" height="24" viewBox="0 0 24 24" fill="none" xmlns="http://www.w3.org/2000/svg">
<g clip-path="url(#clip0_266_6488)">
<path d="M12 24C18.6274 24 24 18.6274 24 12C24 5.37258 18.6274 0 12 0C5.37258 0 0 5.37258 0 12C0 18.6274 5.37258 24 12 24Z" fill="#B22234"/>
<path d="M0.0463867 11.0769H23.9536C23.906 10.4549 23.81 9.83753 23.6664 9.23047H0.333587C0.190007 9.83753 0.0939824 10.4549 0.0463867 11.0769Z" fill="white"/>
<path d="M5.62472 22.1537H18.3751C19.2045 21.6333 19.9672 21.0135 20.6463 20.3081H3.35352C4.03262 21.0135 4.79533 21.6333 5.62472 22.1537Z" fill="white"/>
<path d="M0.333587 14.7695H23.6664C23.81 14.1624 23.906 13.5451 23.9536 12.9231H0.0463867C0.0939824 13.5451 0.190007 14.1624 0.333587 14.7695Z" fill="white"/>
<path d="M1.89916 18.4616H22.1008C22.4799 17.876 22.8068 17.2582 23.0776 16.6152H0.922363C1.19316 17.2582 1.52002 17.876 1.89916 18.4616Z" fill="white"/>
<path d="M0.922363 7.38473H23.0776C22.8068 6.7418 22.4799 6.12395 22.1008 5.53833H1.89916C1.52002 6.12395 1.19316 6.7418 0.922363 7.38473Z" fill="white"/>
<path d="M3.35352 3.69204H20.6463C19.9671 2.98646 19.2041 2.36665 18.3743 1.84644H5.62552C4.79573 2.36665 4.03272 2.98646 3.35352 3.69204Z" fill="white"/>
<path d="M0 12C0 12.312 0.0232 12.6184 0.0464 12.9248H12V0C8.8174 0 5.76516 1.26428 3.51472 3.51472C1.26428 5.76516 0 8.8174 0 12Z" fill="#3C3B6E"/>
<path d="M0.112139 10.4441V10.4209L0.102539 10.4273L0.112139 10.4441Z" fill="white"/>
<path d="M8.95972 7.01685L8.79332 7.52645H8.25732L8.69092 7.84245L8.52532 8.35205L8.95972 8.03685L9.39332 8.35205L9.22772 7.84245L9.66132 7.52645H9.12532L8.95972 7.01685Z" fill="white"/>
<path d="M8.95972 4.4314L8.79332 4.9418H8.25732L8.69092 5.257L8.52532 5.7674L8.95972 5.4522L9.39332 5.7674L9.22772 5.257L9.66132 4.9418H9.12532L8.95972 4.4314Z" fill="white"/>
<path d="M9.12532 10.1122L8.95972 9.60181L8.79332 10.1122H8.25732L8.69092 10.4274L8.52532 10.9378L8.95972 10.6218L9.39332 10.9378L9.22772 10.4274L9.66132 10.1122H9.12532Z" fill="white"/>
<path d="M8.95972 1.84644L8.79332 2.35684H8.25732L8.69092 2.67204L8.52532 3.18244L8.95972 2.86724L9.39332 3.18244L9.22772 2.67204L9.66132 2.35684H9.12532L8.95972 1.84644Z" fill="white"/>
<path d="M10.6453 11.4042L10.4797 10.8938L10.3141 11.4042H9.77734L10.2109 11.7194L10.0453 12.2298L10.4797 11.9146L10.9133 12.2298L10.7477 11.7194L11.1821 11.4042H10.6453Z" fill="white"/>
<path d="M10.4797 8.30884L10.3141 8.81924H9.77734L10.2109 9.13444L10.0453 9.64484L10.4797 9.32964L10.9133 9.64484L10.7477 9.13444L11.1821 8.81924H10.6453L10.4797 8.30884Z" fill="white"/>
<path d="M10.4797 3.1394L10.3141 3.6498H9.77734L10.2109 3.965L10.0453 4.4754L10.4797 4.1594L10.9133 4.4754L10.7477 3.965L11.1821 3.6498H10.6453L10.4797 3.1394Z" fill="white"/>
<path d="M10.4797 5.72412L10.3141 6.23452H9.77734L10.2109 6.54972L10.0453 7.06012L10.4797 6.74492L10.9133 7.06012L10.7477 6.54972L11.1821 6.23452H10.6453L10.4797 5.72412Z" fill="white"/>
<path d="M10.4797 0.553711L10.3141 1.06411H9.77734L10.2109 1.38011L10.0453 1.88971L10.4797 1.57451L10.9133 1.88971L10.7477 1.38011L11.1821 1.06411H10.6453L10.4797 0.553711Z" fill="white"/>
<path d="M7.60482 11.4042L7.43922 10.8938L7.27362 11.4042H6.73682L7.17122 11.7194L7.00562 12.2298L7.43922 11.9146L7.87362 12.2298L7.70802 11.7194L8.14162 11.4042H7.60482Z" fill="white"/>
<path d="M7.43922 8.30884L7.27362 8.81924H6.73682L7.17122 9.13444L7.00562 9.64484L7.43922 9.32964L7.87362 9.64484L7.70802 9.13444L8.14162 8.81924H7.60482L7.43922 8.30884Z" fill="white"/>
<path d="M7.43922 3.1394L7.27362 3.6498H6.73682L7.17122 3.965L7.00562 4.4754L7.43922 4.1594L7.87362 4.4754L7.70802 3.965L8.14162 3.6498H7.60482L7.43922 3.1394Z" fill="white"/>
<path d="M7.43922 5.72412L7.27362 6.23452H6.73682L7.17122 6.54972L7.00562 7.06012L7.43922 6.74492L7.87362 7.06012L7.70802 6.54972L8.14162 6.23452H7.60482L7.43922 5.72412Z" fill="white"/>
<path d="M7.00536 1.88972L7.43976 1.57452L7.87416 1.88972L7.70856 1.38012L8.14216 1.06412H7.60456L7.54056 0.865723C7.46056 0.896123 7.38536 0.920123 7.30936 0.952123L7.27336 1.06412H7.07736C7.00776 1.09532 6.94136 1.13052 6.87256 1.16332L7.17096 1.38012L7.00536 1.88972Z" fill="white"/>
<path d="M5.9192 7.01685L5.7536 7.52645H5.2168L5.6512 7.84245L5.4848 8.35205L5.9192 8.03685L6.3536 8.35205L6.1872 7.84245L6.6216 7.52645H6.0848L5.9192 7.01685Z" fill="white"/>
<path d="M5.9192 4.4314L5.7536 4.9418H5.2168L5.6512 5.257L5.4848 5.7674L5.9192 5.4522L6.3536 5.7674L6.1872 5.257L6.6216 4.9418H6.0848L5.9192 4.4314Z" fill="white"/>
<path d="M6.0848 10.1122L5.9192 9.60181L5.7536 10.1122H5.2168L5.6512 10.4274L5.4848 10.9378L5.9192 10.6218L6.3536 10.9378L6.1872 10.4274L6.6216 10.1122H6.0848Z" fill="white"/>
<path d="M5.9192 1.84644L5.7536 2.35684H5.2168L5.6512 2.67204L5.4848 3.18244L5.9192 2.86724L6.3536 3.18244L6.1872 2.67204L6.6216 2.35684H6.0848L5.9192 1.84644Z" fill="white"/>
<path d="M4.56478 11.4042L4.39918 10.8938L4.23358 11.4042H3.69678L4.13038 11.7194L3.96478 12.2298L4.39918 11.9146L4.83278 12.2298L4.66718 11.7194L5.10158 11.4042H4.56478Z" fill="white"/>
<path d="M4.39918 8.30884L4.23358 8.81924H3.69678L4.13038 9.13444L3.96478 9.64484L4.39918 9.32964L4.83278 9.64484L4.66718 9.13444L5.10158 8.81924H4.56478L4.39918 8.30884Z" fill="white"/>
<path d="M4.39918 3.1394L4.23358 3.6498H3.69678L4.13038 3.965L3.96478 4.4754L4.39918 4.1594L4.83278 4.4754L4.66718 3.965L5.10158 3.6498H4.56478L4.39918 3.1394Z" fill="white"/>
<path d="M4.39918 5.72412L4.23358 6.23452H3.69678L4.13038 6.54972L3.96478 7.06012L4.39918 6.74492L4.83278 7.06012L4.66718 6.54972L5.10158 6.23452H4.56478L4.39918 5.72412Z" fill="white"/>
<path d="M2.87916 7.01685L2.71276 7.52645H2.17676L2.61036 7.84245L2.44476 8.35205L2.87916 8.03685L3.31276 8.35205L3.14716 7.84245L3.58076 7.52645H3.04476L2.87916 7.01685Z" fill="white"/>
<path d="M2.44451 5.7674L2.87971 5.4522L3.31331 5.7674L3.14771 5.257L3.58131 4.9418H3.04531L2.87971 4.4314L2.71331 4.9418H2.31331C2.29811 4.9634 2.28131 4.9834 2.26611 5.005L2.61331 5.257L2.44451 5.7674Z" fill="white"/>
<path d="M3.04476 10.1122L2.87916 9.60181L2.71276 10.1122H2.17676L2.61036 10.4274L2.44476 10.9378L2.87916 10.6218L3.31276 10.9378L3.14716 10.4274L3.58076 10.1122H3.04476Z" fill="white"/>
<path d="M1.52376 11.4042L1.35816 10.8938L1.19256 11.4042H0.655762L1.09016 11.7194L0.924562 12.2298L1.35816 11.9146L1.79256 12.2298L1.62696 11.7194L2.06056 11.4042H1.52376Z" fill="white"/>
<path d="M1.35816 8.30884L1.19256 8.81924H0.655762L1.09016 9.13444L0.924562 9.64484L1.35816 9.32964L1.79256 9.64484L1.62696 9.13444L2.06056 8.81924H1.52376L1.35816 8.30884Z" fill="white"/>
<path d="M1.79283 7.06022L1.62723 6.54982L2.06083 6.23462H1.52403L1.50723 6.18262C1.37923 6.41382 1.26723 6.65382 1.15283 6.89462L1.36003 6.74502L1.79283 7.06022Z" fill="white"/>
<path d="M0.111923 10.4441C0.0975234 10.5585 0.0727234 10.6689 0.0615234 10.7841L0.272723 10.9377L0.111923 10.4441Z" fill="white"/>
<path d="M0.540793 10.1121H0.159993C0.143193 10.2145 0.126393 10.3169 0.112793 10.4209L0.540793 10.1121Z" fill="white"/>
</g>
<defs>
<clipPath id="clip0_266_6488">
<rect width="24" height="24" fill="white"/>
</clipPath>
</defs>
</svg>
